<?xml version="1.0" encoding="UTF-8"?>
<svg xmlns="http://www.w3.org/2000/svg" viewBox="0 0 512 512" width="512" height="512">
  <defs>
    <linearGradient id="bg" x1="0%" y1="0%" x2="100%" y2="100%">
      <stop offset="0%" style="stop-color:#1e40af"/>
      <stop offset="100%" style="stop-color:#7c3aed"/>
    </linearGradient>
    <linearGradient id="accent" x1="0%" y1="0%" x2="100%" y2="100%">
      <stop offset="0%" style="stop-color:#60a5fa"/>
      <stop offset="100%" style="stop-color:#a78bfa"/>
    </linearGradient>
  </defs>
  <!-- Fond arrondi -->
  <rect width="512" height="512" rx="96" ry="96" fill="url(#bg)"/>
  <!-- Livre ouvert -->
  <path d="M256 140 C220 140 160 155 130 175 L130 370 C160 352 220 340 256 340 C292 340 352 352 382 370 L382 175 C352 155 292 140 256 140 Z" fill="white" opacity="0.15"/>
  <!-- Page gauche -->
  <path d="M256 148 C230 148 175 162 148 180 L148 358 C175 342 230 330 256 330 L256 148 Z" fill="white" opacity="0.9"/>
  <!-- Page droite -->
  <path d="M256 148 C282 148 337 162 364 180 L364 358 C337 342 282 330 256 330 L256 148 Z" fill="white" opacity="0.75"/>
  <!-- Reliure centrale -->
  <rect x="252" y="145" width="8" height="188" rx="4" fill="url(#accent)"/>
  <!-- Lignes de texte page gauche -->
  <rect x="168" y="200" width="72" height="6" rx="3" fill="#1e40af" opacity="0.4"/>
  <rect x="168" y="216" width="60" height="6" rx="3" fill="#1e40af" opacity="0.4"/>
  <rect x="168" y="232" width="68" height="6" rx="3" fill="#1e40af" opacity="0.4"/>
  <rect x="168" y="248" width="52" height="6" rx="3" fill="#1e40af" opacity="0.4"/>
  <rect x="168" y="264" width="64" height="6" rx="3" fill="#1e40af" opacity="0.4"/>
  <rect x="168" y="280" width="56" height="6" rx="3" fill="#1e40af" opacity="0.4"/>
  <!-- Lignes de texte page droite -->
  <rect x="272" y="200" width="72" height="6" rx="3" fill="#7c3aed" opacity="0.4"/>
  <rect x="272" y="216" width="60" height="6" rx="3" fill="#7c3aed" opacity="0.4"/>
  <rect x="272" y="232" width="68" height="6" rx="3" fill="#7c3aed" opacity="0.4"/>
  <rect x="272" y="248" width="52" height="6" rx="3" fill="#7c3aed" opacity="0.4"/>
  <rect x="272" y="264" width="64" height="6" rx="3" fill="#7c3aed" opacity="0.4"/>
  <rect x="272" y="280" width="56" height="6" rx="3" fill="#7c3aed" opacity="0.4"/>
  <!-- Étoile / badge version en bas à droite -->
  <circle cx="370" cy="370" r="58" fill="url(#accent)" opacity="0.95"/>
  <text x="370" y="362" text-anchor="middle" font-family="Arial, sans-serif" font-size="28" font-weight="bold" fill="white">1.5</text>
  <text x="370" y="388" text-anchor="middle" font-family="Arial, sans-serif" font-size="14" fill="white" opacity="0.9">PRO</text>
</svg>
